<mxfile host="Electron" modified="2024-03-02T03:14:25.109Z" agent="Mozilla/5.0 (Windows NT 10.0; Win64; x64) AppleWebKit/537.36 (KHTML, like Gecko) draw.io/21.6.5 Chrome/114.0.5735.243 Electron/25.3.1 Safari/537.36" etag="hBAtSDi23jRmIDcS43LI" version="21.6.5" type="device">
  <diagram name="kernfs" id="8JGYWQV7b3LEww7cnMRB">
    <mxGraphModel dx="4477" dy="336" grid="1" gridSize="10" guides="1" tooltips="1" connect="1" arrows="1" fold="1" page="1" pageScale="1" pageWidth="827" pageHeight="1169" math="0" shadow="0">
      <root>
        <mxCell id="0" />
        <mxCell id="1" parent="0" />
        <mxCell id="UO6yg7-cNOSoMyZ3piIq-1" value="struct kernfs_node {" style="swimlane;fontStyle=0;childLayout=stackLayout;horizontal=1;startSize=30;horizontalStack=0;resizeParent=1;resizeParentMax=0;resizeLast=0;collapsible=1;marginBottom=0;whiteSpace=wrap;html=1;fillColor=#76608a;strokeColor=#432D57;fontColor=#ffffff;" parent="1" vertex="1">
          <mxGeometry x="-1380" y="1630" width="220" height="120" as="geometry" />
        </mxCell>
        <mxCell id="UO6yg7-cNOSoMyZ3piIq-2" value="struct kernfs_elem_attr&#x9;&#x9;attr;" style="rounded=0;whiteSpace=wrap;html=1;" parent="UO6yg7-cNOSoMyZ3piIq-1" vertex="1">
          <mxGeometry y="30" width="220" height="30" as="geometry" />
        </mxCell>
        <mxCell id="UO6yg7-cNOSoMyZ3piIq-3" value="struct kernfs_elem_symlink&#x9;symlink;" style="rounded=0;whiteSpace=wrap;html=1;" parent="UO6yg7-cNOSoMyZ3piIq-1" vertex="1">
          <mxGeometry y="60" width="220" height="30" as="geometry" />
        </mxCell>
        <mxCell id="UO6yg7-cNOSoMyZ3piIq-4" value="struct kernfs_elem_dir&#x9;&#x9;dir;" style="rounded=0;whiteSpace=wrap;html=1;" parent="UO6yg7-cNOSoMyZ3piIq-1" vertex="1">
          <mxGeometry y="90" width="220" height="30" as="geometry" />
        </mxCell>
        <mxCell id="UO6yg7-cNOSoMyZ3piIq-5" value="struct kernfs_ops {" style="swimlane;fontStyle=0;childLayout=stackLayout;horizontal=1;startSize=30;horizontalStack=0;resizeParent=1;resizeParentMax=0;resizeLast=0;collapsible=1;marginBottom=0;whiteSpace=wrap;html=1;fillColor=#647687;strokeColor=#314354;fontColor=#ffffff;" parent="1" vertex="1">
          <mxGeometry x="-860" y="1440" width="140" height="60" as="geometry" />
        </mxCell>
        <mxCell id="UO6yg7-cNOSoMyZ3piIq-6" value="xxx" style="rounded=0;whiteSpace=wrap;html=1;" parent="UO6yg7-cNOSoMyZ3piIq-5" vertex="1">
          <mxGeometry y="30" width="140" height="30" as="geometry" />
        </mxCell>
        <mxCell id="UO6yg7-cNOSoMyZ3piIq-7" value="&lt;font color=&quot;#ff0000&quot;&gt;每个&amp;nbsp;kernfs_node&amp;nbsp;都代表着&amp;nbsp;kernfs 的一个节点&lt;/font&gt;" style="text;html=1;strokeColor=none;fillColor=none;align=center;verticalAlign=middle;whiteSpace=wrap;rounded=0;" parent="1" vertex="1">
          <mxGeometry x="-1401" y="1610" width="260" height="20" as="geometry" />
        </mxCell>
        <mxCell id="UO6yg7-cNOSoMyZ3piIq-8" value="struct kernfs_open_node {" style="swimlane;fontStyle=0;childLayout=stackLayout;horizontal=1;startSize=30;horizontalStack=0;resizeParent=1;resizeParentMax=0;resizeLast=0;collapsible=1;marginBottom=0;whiteSpace=wrap;html=1;fillColor=#e3c800;strokeColor=#B09500;fontColor=#000000;" parent="1" vertex="1">
          <mxGeometry x="-830" y="1550" width="170" height="60" as="geometry" />
        </mxCell>
        <mxCell id="UO6yg7-cNOSoMyZ3piIq-9" value="struct list_head&#x9;files;" style="rounded=0;whiteSpace=wrap;html=1;" parent="UO6yg7-cNOSoMyZ3piIq-8" vertex="1">
          <mxGeometry y="30" width="170" height="30" as="geometry" />
        </mxCell>
        <mxCell id="UO6yg7-cNOSoMyZ3piIq-10" value="struct kernfs_open_file {" style="swimlane;fontStyle=0;childLayout=stackLayout;horizontal=1;startSize=30;horizontalStack=0;resizeParent=1;resizeParentMax=0;resizeLast=0;collapsible=1;marginBottom=0;whiteSpace=wrap;html=1;fillColor=#f0a30a;strokeColor=#BD7000;fontColor=#000000;" parent="1" vertex="1">
          <mxGeometry x="-610" y="1580" width="160" height="120" as="geometry" />
        </mxCell>
        <mxCell id="UO6yg7-cNOSoMyZ3piIq-11" value="struct list_head&#x9;list;&amp;nbsp;" style="rounded=0;whiteSpace=wrap;html=1;" parent="UO6yg7-cNOSoMyZ3piIq-10" vertex="1">
          <mxGeometry y="30" width="160" height="30" as="geometry" />
        </mxCell>
        <mxCell id="uTR1_GSfJ1cvIr0OF08S-5" value="struct kernfs_node&#x9;*kn;" style="rounded=0;whiteSpace=wrap;html=1;" parent="UO6yg7-cNOSoMyZ3piIq-10" vertex="1">
          <mxGeometry y="60" width="160" height="30" as="geometry" />
        </mxCell>
        <mxCell id="_3AUgQyDi9uDBmU64LrA-16" value="struct file&#x9;&#x9;*file;" style="rounded=0;whiteSpace=wrap;html=1;" parent="UO6yg7-cNOSoMyZ3piIq-10" vertex="1">
          <mxGeometry y="90" width="160" height="30" as="geometry" />
        </mxCell>
        <mxCell id="UO6yg7-cNOSoMyZ3piIq-19" value="" style="endArrow=classic;html=1;rounded=0;dashed=1;entryX=0.25;entryY=1;entryDx=0;entryDy=0;" parent="UO6yg7-cNOSoMyZ3piIq-10" target="UO6yg7-cNOSoMyZ3piIq-18" edge="1">
          <mxGeometry width="50" height="50" relative="1" as="geometry">
            <mxPoint x="110" y="20" as="sourcePoint" />
            <mxPoint x="174.58333333333303" y="144" as="targetPoint" />
          </mxGeometry>
        </mxCell>
        <mxCell id="UO6yg7-cNOSoMyZ3piIq-12" value="" style="edgeStyle=orthogonalEdgeStyle;rounded=0;orthogonalLoop=1;jettySize=auto;html=1;" parent="1" source="UO6yg7-cNOSoMyZ3piIq-9" target="UO6yg7-cNOSoMyZ3piIq-11" edge="1">
          <mxGeometry relative="1" as="geometry" />
        </mxCell>
        <mxCell id="UO6yg7-cNOSoMyZ3piIq-13" value="struct kernfs_open_file {" style="swimlane;fontStyle=0;childLayout=stackLayout;horizontal=1;startSize=30;horizontalStack=0;resizeParent=1;resizeParentMax=0;resizeLast=0;collapsible=1;marginBottom=0;whiteSpace=wrap;html=1;fillColor=#f0a30a;strokeColor=#BD7000;fontColor=#000000;" parent="1" vertex="1">
          <mxGeometry x="-420" y="1580" width="160" height="120" as="geometry" />
        </mxCell>
        <mxCell id="UO6yg7-cNOSoMyZ3piIq-14" value="struct list_head&#x9;list;&amp;nbsp;" style="rounded=0;whiteSpace=wrap;html=1;" parent="UO6yg7-cNOSoMyZ3piIq-13" vertex="1">
          <mxGeometry y="30" width="160" height="30" as="geometry" />
        </mxCell>
        <mxCell id="uTR1_GSfJ1cvIr0OF08S-6" value="struct kernfs_node&#x9;*kn;" style="rounded=0;whiteSpace=wrap;html=1;" parent="UO6yg7-cNOSoMyZ3piIq-13" vertex="1">
          <mxGeometry y="60" width="160" height="30" as="geometry" />
        </mxCell>
        <mxCell id="_3AUgQyDi9uDBmU64LrA-17" value="struct file&#x9;&#x9;*file;" style="rounded=0;whiteSpace=wrap;html=1;" parent="UO6yg7-cNOSoMyZ3piIq-13" vertex="1">
          <mxGeometry y="90" width="160" height="30" as="geometry" />
        </mxCell>
        <mxCell id="UO6yg7-cNOSoMyZ3piIq-20" value="" style="endArrow=classic;html=1;rounded=0;entryX=0.361;entryY=1.046;entryDx=0;entryDy=0;dashed=1;entryPerimeter=0;" parent="UO6yg7-cNOSoMyZ3piIq-13" target="UO6yg7-cNOSoMyZ3piIq-18" edge="1">
          <mxGeometry width="50" height="50" relative="1" as="geometry">
            <mxPoint x="67.5" y="20" as="sourcePoint" />
            <mxPoint x="20" y="144" as="targetPoint" />
          </mxGeometry>
        </mxCell>
        <mxCell id="UO6yg7-cNOSoMyZ3piIq-15" value="" style="edgeStyle=orthogonalEdgeStyle;rounded=0;orthogonalLoop=1;jettySize=auto;html=1;" parent="1" source="UO6yg7-cNOSoMyZ3piIq-11" target="UO6yg7-cNOSoMyZ3piIq-14" edge="1">
          <mxGeometry relative="1" as="geometry" />
        </mxCell>
        <mxCell id="UO6yg7-cNOSoMyZ3piIq-16" value="" style="edgeStyle=orthogonalEdgeStyle;rounded=0;orthogonalLoop=1;jettySize=auto;html=1;" parent="1" source="UO6yg7-cNOSoMyZ3piIq-14" edge="1">
          <mxGeometry relative="1" as="geometry">
            <mxPoint x="-230" y="1625.0344827586205" as="targetPoint" />
          </mxGeometry>
        </mxCell>
        <mxCell id="UO6yg7-cNOSoMyZ3piIq-17" value="&lt;font style=&quot;font-size: 20px;&quot;&gt;&lt;b&gt;...&lt;/b&gt;&lt;/font&gt;" style="text;html=1;strokeColor=none;fillColor=none;align=center;verticalAlign=middle;whiteSpace=wrap;rounded=0;" parent="1" vertex="1">
          <mxGeometry x="-230" y="1600" width="30" height="30" as="geometry" />
        </mxCell>
        <mxCell id="UO6yg7-cNOSoMyZ3piIq-18" value="&lt;font style=&quot;font-size: 9px;&quot; color=&quot;#ff0000&quot;&gt;一个文件可能打开多次，每打开一次文件都对应这么一个结构体，在打开文件时申请其内存，并加入对应链表中，详见：&lt;/font&gt;&lt;font size=&quot;1&quot; color=&quot;#ff0000&quot;&gt;kernfs_fop_open()函数&lt;/font&gt;" style="text;html=1;strokeColor=none;fillColor=none;align=left;verticalAlign=middle;whiteSpace=wrap;rounded=0;" parent="1" vertex="1">
          <mxGeometry x="-420" y="1520" width="245" height="40" as="geometry" />
        </mxCell>
        <mxCell id="UO6yg7-cNOSoMyZ3piIq-21" value="&lt;font style=&quot;&quot; color=&quot;#ff0000&quot;&gt;&lt;font size=&quot;1&quot;&gt;该文件打开后的组合，即 kernfs_open_file 的组合，第一次打开一个 kernfs_node 时申请内存，详见&amp;nbsp;kernfs_get_open_node() 函数&lt;/font&gt;&lt;br&gt;&lt;/font&gt;" style="text;html=1;strokeColor=none;fillColor=none;align=left;verticalAlign=middle;whiteSpace=wrap;rounded=0;" parent="1" vertex="1">
          <mxGeometry x="-710" y="1490" width="210" height="50" as="geometry" />
        </mxCell>
        <mxCell id="UO6yg7-cNOSoMyZ3piIq-22" value="" style="endArrow=classic;html=1;rounded=0;entryX=0;entryY=1;entryDx=0;entryDy=0;dashed=1;" parent="1" target="UO6yg7-cNOSoMyZ3piIq-21" edge="1">
          <mxGeometry width="50" height="50" relative="1" as="geometry">
            <mxPoint x="-750" y="1560" as="sourcePoint" />
            <mxPoint x="-700" y="1510" as="targetPoint" />
          </mxGeometry>
        </mxCell>
        <mxCell id="UO6yg7-cNOSoMyZ3piIq-23" value="struct kernfs_elem_attr {" style="swimlane;fontStyle=0;childLayout=stackLayout;horizontal=1;startSize=30;horizontalStack=0;resizeParent=1;resizeParentMax=0;resizeLast=0;collapsible=1;marginBottom=0;whiteSpace=wrap;html=1;fillColor=#d5e8d4;strokeColor=#82b366;" parent="1" vertex="1">
          <mxGeometry x="-1060" y="1560" width="160" height="90" as="geometry" />
        </mxCell>
        <mxCell id="UO6yg7-cNOSoMyZ3piIq-24" value="const struct kernfs_ops&#x9;*ops;" style="rounded=0;whiteSpace=wrap;html=1;" parent="UO6yg7-cNOSoMyZ3piIq-23" vertex="1">
          <mxGeometry y="30" width="160" height="30" as="geometry" />
        </mxCell>
        <mxCell id="UO6yg7-cNOSoMyZ3piIq-25" value="struct kernfs_open_node&#x9;*open;" style="rounded=0;whiteSpace=wrap;html=1;" parent="UO6yg7-cNOSoMyZ3piIq-23" vertex="1">
          <mxGeometry y="60" width="160" height="30" as="geometry" />
        </mxCell>
        <mxCell id="UO6yg7-cNOSoMyZ3piIq-26" value="" style="edgeStyle=orthogonalEdgeStyle;rounded=0;orthogonalLoop=1;jettySize=auto;html=1;entryX=0;entryY=0.25;entryDx=0;entryDy=0;strokeColor=#1E1E1E;" parent="1" source="UO6yg7-cNOSoMyZ3piIq-2" target="UO6yg7-cNOSoMyZ3piIq-23" edge="1">
          <mxGeometry relative="1" as="geometry" />
        </mxCell>
        <mxCell id="UO6yg7-cNOSoMyZ3piIq-27" value="" style="edgeStyle=orthogonalEdgeStyle;rounded=0;orthogonalLoop=1;jettySize=auto;html=1;entryX=0;entryY=0.25;entryDx=0;entryDy=0;" parent="1" source="UO6yg7-cNOSoMyZ3piIq-24" target="UO6yg7-cNOSoMyZ3piIq-5" edge="1">
          <mxGeometry relative="1" as="geometry" />
        </mxCell>
        <mxCell id="UO6yg7-cNOSoMyZ3piIq-28" value="" style="endArrow=classic;html=1;rounded=0;exitX=1;exitY=0.5;exitDx=0;exitDy=0;entryX=0;entryY=0.25;entryDx=0;entryDy=0;strokeColor=#FF0000;" parent="1" source="UO6yg7-cNOSoMyZ3piIq-25" target="UO6yg7-cNOSoMyZ3piIq-8" edge="1">
          <mxGeometry width="50" height="50" relative="1" as="geometry">
            <mxPoint x="-940" y="1650" as="sourcePoint" />
            <mxPoint x="-890" y="1600" as="targetPoint" />
            <Array as="points">
              <mxPoint x="-850" y="1635" />
              <mxPoint x="-850" y="1600" />
              <mxPoint x="-850" y="1565" />
            </Array>
          </mxGeometry>
        </mxCell>
        <mxCell id="UO6yg7-cNOSoMyZ3piIq-29" value="struct kernfs_elem_symlink {" style="swimlane;fontStyle=0;childLayout=stackLayout;horizontal=1;startSize=30;horizontalStack=0;resizeParent=1;resizeParentMax=0;resizeLast=0;collapsible=1;marginBottom=0;whiteSpace=wrap;html=1;fillColor=#f8cecc;strokeColor=#b85450;" parent="1" vertex="1">
          <mxGeometry x="-1070" y="1690" width="190" height="60" as="geometry" />
        </mxCell>
        <mxCell id="UO6yg7-cNOSoMyZ3piIq-30" value="struct kernfs_node&#x9;*target_kn;" style="rounded=0;whiteSpace=wrap;html=1;" parent="UO6yg7-cNOSoMyZ3piIq-29" vertex="1">
          <mxGeometry y="30" width="190" height="30" as="geometry" />
        </mxCell>
        <mxCell id="UO6yg7-cNOSoMyZ3piIq-31" value="" style="edgeStyle=orthogonalEdgeStyle;rounded=0;orthogonalLoop=1;jettySize=auto;html=1;entryX=0;entryY=0.25;entryDx=0;entryDy=0;strokeColor=#FF0000;" parent="1" source="UO6yg7-cNOSoMyZ3piIq-3" target="UO6yg7-cNOSoMyZ3piIq-29" edge="1">
          <mxGeometry relative="1" as="geometry" />
        </mxCell>
        <mxCell id="UO6yg7-cNOSoMyZ3piIq-32" value="struct kernfs_elem_dir {" style="swimlane;fontStyle=0;childLayout=stackLayout;horizontal=1;startSize=30;horizontalStack=0;resizeParent=1;resizeParentMax=0;resizeLast=0;collapsible=1;marginBottom=0;whiteSpace=wrap;html=1;fillColor=#dae8fc;strokeColor=#6c8ebf;" parent="1" vertex="1">
          <mxGeometry x="-1070" y="1800" width="190" height="90" as="geometry" />
        </mxCell>
        <mxCell id="UO6yg7-cNOSoMyZ3piIq-33" value="struct kernfs_root&#x9;*root;" style="rounded=0;whiteSpace=wrap;html=1;" parent="UO6yg7-cNOSoMyZ3piIq-32" vertex="1">
          <mxGeometry y="30" width="190" height="30" as="geometry" />
        </mxCell>
        <mxCell id="UO6yg7-cNOSoMyZ3piIq-34" value="..." style="rounded=0;whiteSpace=wrap;html=1;" parent="UO6yg7-cNOSoMyZ3piIq-32" vertex="1">
          <mxGeometry y="60" width="190" height="30" as="geometry" />
        </mxCell>
        <mxCell id="UO6yg7-cNOSoMyZ3piIq-35" value="" style="edgeStyle=orthogonalEdgeStyle;rounded=0;orthogonalLoop=1;jettySize=auto;html=1;entryX=0;entryY=0.25;entryDx=0;entryDy=0;strokeColor=#0000FF;" parent="1" source="UO6yg7-cNOSoMyZ3piIq-4" target="UO6yg7-cNOSoMyZ3piIq-32" edge="1">
          <mxGeometry relative="1" as="geometry" />
        </mxCell>
        <mxCell id="UO6yg7-cNOSoMyZ3piIq-36" value="文件" style="text;html=1;strokeColor=none;fillColor=none;align=center;verticalAlign=middle;whiteSpace=wrap;rounded=0;" parent="1" vertex="1">
          <mxGeometry x="-1110" y="1570" width="40" height="10" as="geometry" />
        </mxCell>
        <mxCell id="UO6yg7-cNOSoMyZ3piIq-37" value="链接" style="text;html=1;strokeColor=none;fillColor=none;align=center;verticalAlign=middle;whiteSpace=wrap;rounded=0;" parent="1" vertex="1">
          <mxGeometry x="-1120" y="1690" width="40" height="10" as="geometry" />
        </mxCell>
        <mxCell id="UO6yg7-cNOSoMyZ3piIq-38" value="目录" style="text;html=1;strokeColor=none;fillColor=none;align=center;verticalAlign=middle;whiteSpace=wrap;rounded=0;" parent="1" vertex="1">
          <mxGeometry x="-1110" y="1810" width="40" height="10" as="geometry" />
        </mxCell>
        <mxCell id="UO6yg7-cNOSoMyZ3piIq-39" value="" style="endArrow=classic;html=1;rounded=0;dashed=1;" parent="1" edge="1">
          <mxGeometry width="50" height="50" relative="1" as="geometry">
            <mxPoint x="-1020" y="1580" as="sourcePoint" />
            <mxPoint x="-1090" y="1510" as="targetPoint" />
          </mxGeometry>
        </mxCell>
        <mxCell id="UO6yg7-cNOSoMyZ3piIq-40" value="" style="endArrow=classic;html=1;rounded=0;dashed=1;" parent="1" edge="1">
          <mxGeometry width="50" height="50" relative="1" as="geometry">
            <mxPoint x="-1020" y="1700" as="sourcePoint" />
            <mxPoint x="-1090" y="1520" as="targetPoint" />
          </mxGeometry>
        </mxCell>
        <mxCell id="UO6yg7-cNOSoMyZ3piIq-41" value="" style="endArrow=classic;html=1;rounded=0;dashed=1;" parent="1" edge="1">
          <mxGeometry width="50" height="50" relative="1" as="geometry">
            <mxPoint x="-1040" y="1810" as="sourcePoint" />
            <mxPoint x="-1100" y="1520" as="targetPoint" />
          </mxGeometry>
        </mxCell>
        <mxCell id="UO6yg7-cNOSoMyZ3piIq-42" value="&lt;font color=&quot;#ff0000&quot;&gt;三者选其一存在&lt;/font&gt;" style="text;html=1;strokeColor=none;fillColor=none;align=center;verticalAlign=middle;whiteSpace=wrap;rounded=0;" parent="1" vertex="1">
          <mxGeometry x="-1141" y="1490" width="101" height="20" as="geometry" />
        </mxCell>
        <mxCell id="UO6yg7-cNOSoMyZ3piIq-46" value="struct seq_file {" style="swimlane;fontStyle=0;childLayout=stackLayout;horizontal=1;startSize=30;horizontalStack=0;resizeParent=1;resizeParentMax=0;resizeLast=0;collapsible=1;marginBottom=0;whiteSpace=wrap;html=1;fillColor=#a0522d;strokeColor=#6D1F00;fontColor=#ffffff;" parent="1" vertex="1">
          <mxGeometry x="-530" y="1360" width="110" height="50" as="geometry" />
        </mxCell>
        <mxCell id="UO6yg7-cNOSoMyZ3piIq-47" value="void *private;" style="rounded=0;whiteSpace=wrap;html=1;" parent="UO6yg7-cNOSoMyZ3piIq-46" vertex="1">
          <mxGeometry y="30" width="110" height="20" as="geometry" />
        </mxCell>
        <mxCell id="UO6yg7-cNOSoMyZ3piIq-49" value="" style="endArrow=classic;html=1;exitX=1;exitY=0.5;exitDx=0;exitDy=0;entryX=0.004;entryY=0.147;entryDx=0;entryDy=0;curved=1;entryPerimeter=0;" parent="1" source="UO6yg7-cNOSoMyZ3piIq-47" target="UO6yg7-cNOSoMyZ3piIq-10" edge="1">
          <mxGeometry width="50" height="50" relative="1" as="geometry">
            <mxPoint x="-420" y="1460" as="sourcePoint" />
            <mxPoint x="-370" y="1410" as="targetPoint" />
            <Array as="points">
              <mxPoint x="-400" y="1400" />
              <mxPoint x="-400" y="1490" />
              <mxPoint x="-630" y="1490" />
              <mxPoint x="-630" y="1580" />
              <mxPoint x="-620" y="1595" />
            </Array>
          </mxGeometry>
        </mxCell>
        <mxCell id="UO6yg7-cNOSoMyZ3piIq-53" value="struct seq_file {" style="swimlane;fontStyle=0;childLayout=stackLayout;horizontal=1;startSize=30;horizontalStack=0;resizeParent=1;resizeParentMax=0;resizeLast=0;collapsible=1;marginBottom=0;whiteSpace=wrap;html=1;fillColor=#a0522d;strokeColor=#6D1F00;fontColor=#ffffff;" parent="1" vertex="1">
          <mxGeometry x="-210" y="1360" width="110" height="50" as="geometry" />
        </mxCell>
        <mxCell id="UO6yg7-cNOSoMyZ3piIq-54" value="void *private;" style="rounded=0;whiteSpace=wrap;html=1;" parent="UO6yg7-cNOSoMyZ3piIq-53" vertex="1">
          <mxGeometry y="30" width="110" height="20" as="geometry" />
        </mxCell>
        <mxCell id="UO6yg7-cNOSoMyZ3piIq-56" value="" style="endArrow=classic;html=1;entryX=-0.006;entryY=0.135;entryDx=0;entryDy=0;strokeColor=#0000FF;curved=1;entryPerimeter=0;" parent="1" target="UO6yg7-cNOSoMyZ3piIq-13" edge="1">
          <mxGeometry width="50" height="50" relative="1" as="geometry">
            <mxPoint x="-100" y="1400" as="sourcePoint" />
            <mxPoint x="-50" y="1350" as="targetPoint" />
            <Array as="points">
              <mxPoint x="-80" y="1400" />
              <mxPoint x="-80" y="1500" />
              <mxPoint x="-440" y="1500" />
              <mxPoint x="-440" y="1595" />
            </Array>
          </mxGeometry>
        </mxCell>
        <mxCell id="UO6yg7-cNOSoMyZ3piIq-64" value="" style="endArrow=classic;html=1;rounded=0;exitX=1;exitY=0.5;exitDx=0;exitDy=0;" parent="1" source="UO6yg7-cNOSoMyZ3piIq-68" edge="1">
          <mxGeometry width="50" height="50" relative="1" as="geometry">
            <mxPoint x="-1129" y="1375" as="sourcePoint" />
            <mxPoint x="-1080" y="1375" as="targetPoint" />
          </mxGeometry>
        </mxCell>
        <mxCell id="UO6yg7-cNOSoMyZ3piIq-68" value="static struct kernfs_node *&lt;b&gt;&lt;font color=&quot;#ff0000&quot;&gt;kernfs_notify_list&lt;/font&gt;&lt;/b&gt;" style="text;html=1;strokeColor=none;fillColor=none;align=center;verticalAlign=middle;whiteSpace=wrap;rounded=0;" parent="1" vertex="1">
          <mxGeometry x="-1380" y="1360" width="250" height="30" as="geometry" />
        </mxCell>
        <mxCell id="_3AUgQyDi9uDBmU64LrA-1" value="&lt;div&gt;struct kernfs_root {&lt;/div&gt;" style="swimlane;fontStyle=0;childLayout=stackLayout;horizontal=1;startSize=30;horizontalStack=0;resizeParent=1;resizeParentMax=0;resizeLast=0;collapsible=1;marginBottom=0;whiteSpace=wrap;html=1;fillColor=#e1d5e7;strokeColor=#9673a6;" parent="1" vertex="1">
          <mxGeometry x="-820" y="1830" width="190" height="60" as="geometry" />
        </mxCell>
        <mxCell id="_3AUgQyDi9uDBmU64LrA-3" value="&lt;div&gt;struct list_head&lt;span style=&quot;white-space: pre;&quot;&gt;&amp;nbsp;&amp;nbsp;&amp;nbsp;&amp;nbsp;&lt;/span&gt;supers;&lt;/div&gt;" style="rounded=0;whiteSpace=wrap;html=1;" parent="_3AUgQyDi9uDBmU64LrA-1" vertex="1">
          <mxGeometry y="30" width="190" height="30" as="geometry" />
        </mxCell>
        <mxCell id="_3AUgQyDi9uDBmU64LrA-4" value="" style="edgeStyle=orthogonalEdgeStyle;rounded=0;orthogonalLoop=1;jettySize=auto;html=1;entryX=0;entryY=0.25;entryDx=0;entryDy=0;" parent="1" source="UO6yg7-cNOSoMyZ3piIq-33" target="_3AUgQyDi9uDBmU64LrA-1" edge="1">
          <mxGeometry relative="1" as="geometry" />
        </mxCell>
        <mxCell id="_3AUgQyDi9uDBmU64LrA-9" value="struct file{" style="swimlane;fontStyle=0;childLayout=stackLayout;horizontal=1;startSize=30;horizontalStack=0;resizeParent=1;resizeParentMax=0;resizeLast=0;collapsible=1;marginBottom=0;whiteSpace=wrap;html=1;fillColor=#e51400;strokeColor=#B20000;fontColor=#ffffff;" parent="1" vertex="1">
          <mxGeometry x="-1720" y="1610" width="110" height="50" as="geometry" />
        </mxCell>
        <mxCell id="_3AUgQyDi9uDBmU64LrA-11" value="..." style="rounded=0;whiteSpace=wrap;html=1;" parent="_3AUgQyDi9uDBmU64LrA-9" vertex="1">
          <mxGeometry y="30" width="110" height="20" as="geometry" />
        </mxCell>
        <mxCell id="_3AUgQyDi9uDBmU64LrA-12" value="" style="endArrow=classic;html=1;rounded=0;entryX=-0.007;entryY=0.154;entryDx=0;entryDy=0;entryPerimeter=0;exitX=1;exitY=0.5;exitDx=0;exitDy=0;" parent="1" source="_3AUgQyDi9uDBmU64LrA-13" target="UO6yg7-cNOSoMyZ3piIq-1" edge="1">
          <mxGeometry width="50" height="50" relative="1" as="geometry">
            <mxPoint x="-1530" y="1670" as="sourcePoint" />
            <mxPoint x="-1480" y="1620" as="targetPoint" />
          </mxGeometry>
        </mxCell>
        <mxCell id="_3AUgQyDi9uDBmU64LrA-13" value="&lt;font style=&quot;font-size: 20px;&quot;&gt;...&lt;/font&gt;" style="text;html=1;strokeColor=none;fillColor=none;align=center;verticalAlign=middle;whiteSpace=wrap;rounded=0;" parent="1" vertex="1">
          <mxGeometry x="-1520" y="1640" width="30" height="20" as="geometry" />
        </mxCell>
        <mxCell id="_3AUgQyDi9uDBmU64LrA-14" value="" style="endArrow=classic;html=1;rounded=0;entryX=0;entryY=0.5;entryDx=0;entryDy=0;" parent="1" source="_3AUgQyDi9uDBmU64LrA-11" target="_3AUgQyDi9uDBmU64LrA-13" edge="1">
          <mxGeometry width="50" height="50" relative="1" as="geometry">
            <mxPoint x="-1320" y="1690" as="sourcePoint" />
            <mxPoint x="-1270" y="1640" as="targetPoint" />
          </mxGeometry>
        </mxCell>
        <mxCell id="_3AUgQyDi9uDBmU64LrA-15" value="&lt;font color=&quot;#ff0000&quot;&gt;通过 file-&amp;gt;f_path.dentry-&amp;gt;d_fsdata&lt;br&gt;&amp;nbsp;与&amp;nbsp;kernfs_node 联系起来&lt;/font&gt;" style="text;html=1;strokeColor=none;fillColor=none;align=left;verticalAlign=middle;whiteSpace=wrap;rounded=0;" parent="1" vertex="1">
          <mxGeometry x="-1600" y="1605" width="190" height="30" as="geometry" />
        </mxCell>
        <mxCell id="_3AUgQyDi9uDBmU64LrA-20" value="&lt;font color=&quot;#ff0000&quot;&gt;该结构体可由 sysfs 等上层实现&lt;/font&gt;" style="text;html=1;strokeColor=none;fillColor=none;align=left;verticalAlign=middle;whiteSpace=wrap;rounded=0;" parent="1" vertex="1">
          <mxGeometry x="-830" y="1390" width="101" height="30" as="geometry" />
        </mxCell>
        <mxCell id="_3AUgQyDi9uDBmU64LrA-21" value="" style="endArrow=classic;html=1;rounded=0;entryX=0.5;entryY=1;entryDx=0;entryDy=0;dashed=1;" parent="1" target="_3AUgQyDi9uDBmU64LrA-20" edge="1">
          <mxGeometry width="50" height="50" relative="1" as="geometry">
            <mxPoint x="-810" y="1450" as="sourcePoint" />
            <mxPoint x="-760" y="1400" as="targetPoint" />
          </mxGeometry>
        </mxCell>
        <mxCell id="_3AUgQyDi9uDBmU64LrA-23" value="" style="endArrow=classic;html=1;exitX=1;exitY=0.5;exitDx=0;exitDy=0;entryX=0;entryY=0.25;entryDx=0;entryDy=0;curved=1;" parent="1" source="_3AUgQyDi9uDBmU64LrA-16" target="_3AUgQyDi9uDBmU64LrA-9" edge="1">
          <mxGeometry width="50" height="50" relative="1" as="geometry">
            <mxPoint x="-410" y="1880" as="sourcePoint" />
            <mxPoint x="-360" y="1830" as="targetPoint" />
            <Array as="points">
              <mxPoint x="-430" y="1680" />
              <mxPoint x="-440" y="1920" />
              <mxPoint x="-1750" y="1920" />
              <mxPoint x="-1770" y="1620" />
            </Array>
          </mxGeometry>
        </mxCell>
        <mxCell id="_3AUgQyDi9uDBmU64LrA-24" value="" style="endArrow=classic;html=1;exitX=1;exitY=0.5;exitDx=0;exitDy=0;entryX=0;entryY=0.25;entryDx=0;entryDy=0;curved=1;strokeColor=#0000FF;" parent="1" source="_3AUgQyDi9uDBmU64LrA-17" target="_3AUgQyDi9uDBmU64LrA-9" edge="1">
          <mxGeometry width="50" height="50" relative="1" as="geometry">
            <mxPoint x="-250" y="1685" as="sourcePoint" />
            <mxPoint x="-210" y="1970" as="targetPoint" />
            <Array as="points">
              <mxPoint x="-210" y="1685" />
              <mxPoint x="-210" y="1930" />
              <mxPoint x="-1790" y="1930" />
              <mxPoint x="-1790" y="1623" />
            </Array>
          </mxGeometry>
        </mxCell>
      </root>
    </mxGraphModel>
  </diagram>
</mxfile>
